<?xml version="1.0" ?><svg enable-background="new 0 0 24 24" id="Layer_1" version="1.1" viewBox="0 0 24 24" xml:space="preserve" xmlns="http://www.w3.org/2000/svg" xmlns:xlink="http://www.w3.org/1999/xlink"><path d="M12,0C5.3833008,0,0,5.3833008,0,12s5.3833008,12,12,12s12-5.3833008,12-12S18.6166992,0,12,0z   M13.0288086,5.8457031c0.0776367-0.2504883,0.2954102-0.4301758,0.5556641-0.4570313l0.9829102-0.109375l0.3203125-0.8549805  c0.1977539-0.5131836,1.0336914-0.5063477,1.2241211-0.0009766l0.3208008,0.855957l0.9858398,0.109375  c0.2573242,0.0268555,0.4750977,0.206543,0.5527344,0.4570313c0.0761719,0.2480469-0.0014648,0.5180664-0.1982422,0.6879883  L16.9926758,7.203125l0.2226563,1.0014648c0.059082,0.2597656-0.0512695,0.5366211-0.2758789,0.6860352  C16.8574219,8.9453125,16.6757813,9,16.5771484,9c-0.1035156,0-0.2944336-0.0610352-0.3789063-0.1210938L15.5,8.3803711  l-0.6967773,0.4975586C14.7182617,8.9384766,14.5273438,9,14.4233398,9c-0.1259766,0-0.2490234-0.0361328-0.3554688-0.1044922  c-0.2299805-0.1533203-0.3408203-0.4287109-0.2832031-0.6899414l0.2226563-1.0024414l-0.7792969-0.668457  C13.0302734,6.3637695,12.9526367,6.09375,13.0288086,5.8457031z M6.0288086,5.8457031  c0.0776367-0.2504883,0.2954102-0.4301758,0.5556641-0.4570313l0.9829102-0.109375l0.3203125-0.8549805  c0.1977539-0.5131836,1.0336914-0.5063477,1.2241211-0.0009766l0.3208008,0.855957l0.9858398,0.109375  c0.2573242,0.0268555,0.4750977,0.206543,0.5527344,0.4570313c0.0761719,0.2480469-0.0014648,0.5180664-0.1982422,0.6879883  L9.9926758,7.203125l0.2226563,1.0014648c0.059082,0.2597656-0.0512695,0.5366211-0.2758789,0.6860352  C9.8574219,8.9453125,9.6757813,9,9.5771484,9C9.4736328,9,9.2827148,8.9389648,9.1982422,8.8789063L8.5,8.3803711  L7.8032227,8.8779297C7.7182617,8.9384766,7.5273438,9,7.4233398,9C7.2973633,9,7.1743164,8.9638672,7.0678711,8.8955078  C6.8378906,8.7421875,6.7270508,8.4667969,6.784668,8.2055664L7.0073242,7.203125L6.2280273,6.534668  C6.0302734,6.3637695,5.9526367,6.09375,6.0288086,5.8457031z M4.9233398,14.5  c-0.1259766,0-0.2490234-0.0361328-0.3554688-0.1044922c-0.2299805-0.1533203-0.3408203-0.4287109-0.2832031-0.6899414  l0.2226563-1.0024414l-0.7792969-0.668457c-0.1977539-0.1708984-0.2753906-0.440918-0.1992188-0.6889648  c0.0776367-0.2504883,0.2954102-0.4301758,0.5556641-0.4570313l0.9829102-0.109375l0.3203125-0.8549805  C5.5849609,9.4111328,6.421875,9.4179688,6.6118164,9.9233398l0.3208008,0.855957l0.9858398,0.109375  c0.2573242,0.0268555,0.4750977,0.206543,0.5527344,0.4570313c0.0761719,0.2480469-0.0014648,0.5180664-0.1982422,0.6879883  L7.4926758,12.703125l0.2226563,1.0014648c0.059082,0.2597656-0.0512695,0.5366211-0.2758789,0.6860352  C7.3574219,14.4453125,7.1757813,14.5,7.0771484,14.5c-0.1035156,0-0.2944336-0.0610352-0.3789063-0.1210938L6,13.8803711  l-0.6967773,0.4975586C5.2182617,14.4384766,5.0273438,14.5,4.9233398,14.5z M10.7729492,17.5336914L9.9926758,18.203125  l0.2226563,1.0014648c0.059082,0.2597656-0.0512695,0.5366211-0.2758789,0.6860352C9.8574219,19.9453125,9.6757813,20,9.5771484,20  c-0.1035156,0-0.2944336-0.0610352-0.3789063-0.1210938L8.5,19.3803711l-0.6967773,0.4975586  C7.7182617,19.9384766,7.5273438,20,7.4233398,20c-0.1259766,0-0.2490234-0.0361328-0.3554688-0.1044922  c-0.2299805-0.1533203-0.3408203-0.4287109-0.2832031-0.6899414l0.2226563-1.0024414l-0.7792969-0.668457  c-0.1977539-0.1708984-0.2753906-0.440918-0.1992188-0.6889648c0.0776367-0.2504883,0.2954102-0.4301758,0.5556641-0.4570313  l0.9829102-0.109375l0.3203125-0.8549805c0.1977539-0.5131836,1.0336914-0.5063477,1.2241211-0.0009766l0.3208008,0.855957  l0.9858398,0.109375c0.2573242,0.0268555,0.4750977,0.206543,0.5527344,0.4570313  C11.0473633,17.09375,10.9697266,17.3637695,10.7729492,17.5336914z M12,13.8803711l-0.6967773,0.4975586  C11.2182617,14.4384766,11.0273438,14.5,10.9233398,14.5c-0.1259766,0-0.2490234-0.0361328-0.3554688-0.1044922  c-0.2299805-0.1533203-0.3408203-0.4287109-0.2832031-0.6899414l0.2226563-1.0024414l-0.7792969-0.668457  c-0.1977539-0.1708984-0.2753906-0.440918-0.1992188-0.6889648c0.0776367-0.2504883,0.2954102-0.4301758,0.5556641-0.4570313  l0.9829102-0.109375l0.3203125-0.8549805c0.1977539-0.5131836,1.0336914-0.5063477,1.2241211-0.0009766l0.3208008,0.855957  l0.9858398,0.109375c0.2573242,0.0268555,0.4750977,0.206543,0.5527344,0.4570313  c0.0761719,0.2480469-0.0014648,0.5180664-0.1982422,0.6879883l-0.7802734,0.6694336l0.2226563,1.0014648  c0.059082,0.2597656-0.0512695,0.5366211-0.2758789,0.6860352C13.3574219,14.4453125,13.1757813,14.5,13.0771484,14.5  c-0.1035156,0-0.2944336-0.0610352-0.3789063-0.1210938L12,13.8803711z M17.7729492,17.5336914l-0.7802734,0.6694336  l0.2226563,1.0014648c0.059082,0.2597656-0.0512695,0.5366211-0.2758789,0.6860352  C16.8574219,19.9453125,16.6757813,20,16.5771484,20c-0.1035156,0-0.2944336-0.0610352-0.3789063-0.1210938L15.5,19.3803711  l-0.6967773,0.4975586C14.7182617,19.9384766,14.5273438,20,14.4233398,20c-0.1259766,0-0.2490234-0.0361328-0.3554688-0.1044922  c-0.2299805-0.1533203-0.3408203-0.4287109-0.2832031-0.6899414l0.2226563-1.0024414l-0.7792969-0.668457  c-0.1977539-0.1708984-0.2753906-0.440918-0.1992188-0.6889648c0.0776367-0.2504883,0.2954102-0.4301758,0.5556641-0.4570313  l0.9829102-0.109375l0.3203125-0.8549805c0.1977539-0.5131836,1.0336914-0.5063477,1.2241211-0.0009766l0.3208008,0.855957  l0.9858398,0.109375c0.2573242,0.0268555,0.4750977,0.206543,0.5527344,0.4570313  C18.0473633,17.09375,17.9697266,17.3637695,17.7729492,17.5336914z M20.2729492,12.0336914l-0.7802734,0.6694336  l0.2226563,1.0014648c0.059082,0.2597656-0.0512695,0.5366211-0.2758789,0.6860352  C19.3574219,14.4453125,19.1757813,14.5,19.0771484,14.5c-0.1035156,0-0.2944336-0.0610352-0.3789063-0.1210938L18,13.8803711  l-0.6967773,0.4975586C17.2182617,14.4384766,17.0273438,14.5,16.9233398,14.5  c-0.1259766,0-0.2490234-0.0361328-0.3554688-0.1044922c-0.2299805-0.1533203-0.3408203-0.4287109-0.2832031-0.6899414  l0.2226563-1.0024414l-0.7792969-0.668457c-0.1977539-0.1708984-0.2753906-0.440918-0.1992188-0.6889648  c0.0776367-0.2504883,0.2954102-0.4301758,0.5556641-0.4570313l0.9829102-0.109375l0.3203125-0.8549805  c0.1972656-0.5131836,1.0341797-0.5063477,1.2241211-0.0009766l0.3208008,0.855957l0.9858398,0.109375  c0.2573242,0.0268555,0.4750977,0.206543,0.5527344,0.4570313C20.5473633,11.59375,20.4697266,11.8637695,20.2729492,12.0336914z" fill="#303C42"/><g/><g/><g/><g/><g/><g/><g/><g/><g/><g/><g/><g/><g/><g/><g/></svg>