<svg id="Layer_1" data-name="Layer 1" xmlns="http://www.w3.org/2000/svg" xmlns:xlink="http://www.w3.org/1999/xlink" viewBox="0 0 481.51 506.09" width="406" height="306" class="illustration styles_illustrationTablet__1DWOa"><defs><linearGradient id="linear-gradient" x1="281.27" y1="353.76" x2="259.77" y2="579.95" gradientUnits="userSpaceOnUse"><stop offset="0.01"></stop><stop offset="0.13" stop-opacity="0.69"></stop><stop offset="1" stop-opacity="0"></stop></linearGradient><linearGradient id="linear-gradient-2" x1="381.84" y1="345.41" x2="493.34" y2="361.17" xlink:href="#linear-gradient"></linearGradient><linearGradient id="linear-gradient-3" x1="200.71" y1="290.85" x2="215.89" y2="392.01" gradientUnits="userSpaceOnUse"><stop offset="0.01"></stop><stop offset="0.15" stop-opacity="0.47"></stop><stop offset="1" stop-opacity="0"></stop></linearGradient><linearGradient id="linear-gradient-4" x1="256.57" y1="296.78" x2="199.41" y2="309.45" xlink:href="#linear-gradient"></linearGradient><linearGradient id="linear-gradient-5" x1="254.63" y1="276.37" x2="329.53" y2="359.15" xlink:href="#linear-gradient"></linearGradient><linearGradient id="linear-gradient-6" x1="275.88" y1="246.44" x2="315.3" y2="202.52" xlink:href="#linear-gradient"></linearGradient><linearGradient id="linear-gradient-7" x1="213.85" y1="229.3" x2="287.81" y2="221.04" xlink:href="#linear-gradient"></linearGradient><linearGradient id="linear-gradient-8" x1="250.24" y1="250.89" x2="257.42" y2="298.05" xlink:href="#linear-gradient"></linearGradient><linearGradient id="linear-gradient-9" x1="282.45" y1="136.24" x2="247.81" y2="175.09" xlink:href="#linear-gradient"></linearGradient><linearGradient id="linear-gradient-10" x1="276.45" y1="256.66" x2="219.58" y2="338.31" xlink:href="#linear-gradient"></linearGradient><linearGradient id="linear-gradient-11" x1="173.37" y1="356.19" x2="159.85" y2="480.08" xlink:href="#linear-gradient"></linearGradient><linearGradient id="linear-gradient-12" x1="346.22" y1="355.88" x2="332.71" y2="479.77" xlink:href="#linear-gradient"></linearGradient><linearGradient id="linear-gradient-13" x1="356.18" y1="379.36" x2="185.56" y2="476.78" xlink:href="#linear-gradient"></linearGradient><linearGradient id="linear-gradient-14" x1="341.75" y1="207.07" x2="428.47" y2="277.18" xlink:href="#linear-gradient"></linearGradient><linearGradient id="linear-gradient-15" x1="229.69" y1="159.06" x2="271.36" y2="175.02" xlink:href="#linear-gradient"></linearGradient><linearGradient id="linear-gradient-16" x1="222.66" y1="219.21" x2="217.38" y2="182.24" xlink:href="#linear-gradient"></linearGradient></defs><title>Fitness 2</title><path d="M521.91,400q.29,8.56-.29,17.12a169.54,169.54,0,0,1-10.17,47.4c-3.93,10.58-9.23,21.16-18.2,28-13,9.93-30.69,10.05-47,11.11-88.67,5.79-174.51,51.8-262.33,38.28-35.81-5.37-92.33-22.76-117.17-51-14-15.85-15.37-47-16-73.85-.26-11.39-.38-22-1.27-30.35C43.7,332.68,39.1,273.56,69.26,228.33c25.83-38.73,72.75-59.7,97.65-99,13.86-21.9,20.54-49,39.91-66.2,17.13-15.24,41-19.84,63.8-22.57,24.32-2.91,49.66-4.24,72.67,4.15s41.26,25.49,59,42.2l82.35,77.71c15.2,14.34,30.92,29.47,37.88,49.17,12.16,34.36-5.36,71.54-7.14,108C514.05,347.88,521,373.77,521.91,400Z" transform="translate(-45.24 -38.29)" fill="#68e1fd" opacity="0.18" style="isolation: isolate;"></path><path d="M521.62,417.09a169.54,169.54,0,0,1-10.17,47.4c-3.93,10.58-9.23,21.16-18.2,28-13,9.93-30.69,10.05-47,11.11-88.67,5.79-174.51,51.8-262.33,38.28-35.81-5.37-92.33-22.76-117.17-51-14-15.85-15.37-47-16-73.85Z" transform="translate(-45.24 -38.29)" fill="#68e1fd" opacity="0.32"></path><path d="M472.33,436.42c5.86-.09,13.78,1.15,13.78,5.35,0,2.52-3.18,4.37-6.06,5.82L425.8,474.93c-10.52,5.3-21.32,10.7-33.74,13.11-11.29,2.2-23.21,1.78-34.9,1.34l-290-10.76a19.61,19.61,0,0,1-6.93-1.09c-8-3.44-.8-12.23,7-15.86,38.7-18,87.49-19.24,133.59-20C291.26,440.3,381.93,436.42,472.33,436.42Z" transform="translate(-45.24 -38.29)" fill="url(#linear-gradient)"></path><path d="M388,435.83h0c-5.86,0-9.69-4.61-8.56-10.29L409.93,271.9a13.39,13.39,0,0,1,12.65-10.3h0c5.85,0,9.68,4.62,8.55,10.3L400.62,425.54A13.39,13.39,0,0,1,388,435.83Z" transform="translate(-45.24 -38.29)" fill="#3f3d56"></path><path d="M388,435.83h0c-5.86,0-9.69-4.61-8.56-10.29L409.93,271.9a13.39,13.39,0,0,1,12.65-10.3h0c5.85,0,9.68,4.62,8.55,10.3L400.62,425.54A13.39,13.39,0,0,1,388,435.83Z" transform="translate(-45.24 -38.29)" fill="url(#linear-gradient-2)"></path><path d="M152.07,399a115.57,115.57,0,0,0,15.14,24.27c2.38,2.89,5.53,5.9,9.25,5.48a2.08,2.08,0,0,0,1.86-1.17,2.48,2.48,0,0,0-.39-1.77l-7.2-14.09a118.89,118.89,0,0,0-6.71-12c-1.76-2.64-5.09-8.59-8.44-9.38C150,389,150.66,396,152.07,399Z" transform="translate(-45.24 -38.29)" fill="#fff"></path><path d="M331.65,397.28a115.63,115.63,0,0,0,27.25-8.71c3.39-1.6,7.07-3.91,7.58-7.62a2.05,2.05,0,0,0-.67-2.09,2.4,2.4,0,0,0-1.81-.06l-15.43,3.51a118.21,118.21,0,0,0-13.25,3.57c-3,1.06-9.58,2.83-11.17,5.87C321.5,396.85,328.39,397.91,331.65,397.28Z" transform="translate(-45.24 -38.29)" fill="#fff"></path><path d="M248.55,319.88c-.3,1.05-.61,2.1-.91,3.15l-7.83,27.21a13.47,13.47,0,0,1-1.7,4.1,13,13,0,0,1-3,2.78c-17.88,13-37.88,22.71-57.75,32.36l-1.1.53a10.67,10.67,0,0,1-5.17,1.25c-2.2-.17-4.43-2-4.22-4.16.17-1.85,1.87-3.12,3.37-4.21,8-5.84,14.21-13.64,20.8-21s13.85-14.47,22.93-18.34c1.88-.8,4-1.57,5-3.31a8.16,8.16,0,0,0,1-3.14c.68-4.22,1-8.49,1.88-12.67,1-4.87,2.22-9.36,7.49-10.58a22.43,22.43,0,0,1,18.36,3.45,2.48,2.48,0,0,1,1,1.18A2.57,2.57,0,0,1,248.55,319.88Z" transform="translate(-45.24 -38.29)" fill="#f49b7b"></path><path d="M247.64,323l-7.83,27.21a13.47,13.47,0,0,1-1.7,4.1,13,13,0,0,1-3,2.78c-17.88,13-37.88,22.71-57.75,32.36l-1.1.53c-.92-.07-1.85-.18-2.77-.32,3.33-5.3,8.88-8.72,14-12.4a222,222,0,0,0,17.44-14.57l13.58-12.16a28.07,28.07,0,0,0,6.09-6.79,23.56,23.56,0,0,0,2.07-5.66c1.4-5.45,1.54-22.82,7.74-25C238.54,311.61,243.22,320.93,247.64,323Z" transform="translate(-45.24 -38.29)" fill="url(#linear-gradient-3)"></path><path d="M220.85,285a156.19,156.19,0,0,0-2,29.13,6.42,6.42,0,0,0,.54,2.89,6.23,6.23,0,0,0,2.49,2.16,61.17,61.17,0,0,0,30.28,8.11,2.31,2.31,0,0,0,2.72-1.92q2-5.26,3.62-10.68a14.58,14.58,0,0,0,.87-6.35c-.47-3.05-2.71-5.49-4.84-7.72l-20.41-21.37c-2.32-2.43-5.2-7.26-8.79-4.92C222.33,276.24,221.37,281.85,220.85,285Z" transform="translate(-45.24 -38.29)" fill="#3f3d56"></path><path d="M220.85,285a156.19,156.19,0,0,0-2,29.13,6.42,6.42,0,0,0,.54,2.89,6.23,6.23,0,0,0,2.49,2.16,61.17,61.17,0,0,0,30.28,8.11,2.31,2.31,0,0,0,2.72-1.92q2-5.26,3.62-10.68a14.58,14.58,0,0,0,.87-6.35c-.47-3.05-2.71-5.49-4.84-7.72l-20.41-21.37c-2.32-2.43-5.2-7.26-8.79-4.92C222.33,276.24,221.37,281.85,220.85,285Z" transform="translate(-45.24 -38.29)" fill="url(#linear-gradient-4)"></path><path d="M332.58,378.71a4,4,0,0,1-2.1.9,24,24,0,0,1-6.82.35,3.51,3.51,0,0,1-1.62-.44,3.81,3.81,0,0,1-1.26-1.88,66.63,66.63,0,0,1-2.83-7.47c-.28-.95-.59-1.9-.92-2.83-3.45-10-9.26-19.06-14-28.53-1.91-3.79-3.69-7.79-3.89-12a34.15,34.15,0,0,1,.94-8.17A61.67,61.67,0,0,1,278.5,313a8.81,8.81,0,0,1-.06-7.06,20.89,20.89,0,0,1,3.29-4.6l.94-1.05,7.61-8.38a1.3,1.3,0,0,1,.54-.42,1.4,1.4,0,0,1,1.13.28c1.07.64,2.08,1.38,3.15,2A180.68,180.68,0,0,1,312,305.42a31.59,31.59,0,0,1,5.56,5.15,27.75,27.75,0,0,1,4.19,8.26c6.15,17.74,4.7,37.43,10.93,55.14C333.24,375.55,333.77,377.53,332.58,378.71Z" transform="translate(-45.24 -38.29)" fill="#f49b7b"></path><path d="M318.86,368.56a5.87,5.87,0,0,1-1.83-1.22c-3.45-10-9.26-19.06-14-28.53-1.91-3.79-3.69-7.79-3.89-12a34.15,34.15,0,0,1,.94-8.17A61.67,61.67,0,0,1,278.5,313a8.81,8.81,0,0,1-.06-7.06,20.89,20.89,0,0,1,3.29-4.6,7.86,7.86,0,0,1,7.19-.08c3.17,1.37,6.25,2.86,9.47,4.15,2.6,1.05,5.57,2.38,6.55,5.25.64,1.87.22,3.93.46,5.89a17.2,17.2,0,0,0,1.25,4.24q3.11,8,6.22,16a110.18,110.18,0,0,1,4.63,13.65A55.11,55.11,0,0,1,318.86,368.56Z" transform="translate(-45.24 -38.29)" fill="url(#linear-gradient-5)"></path><path d="M320.53,232.84a5.71,5.71,0,0,1-3.09,3.45c-3,1.23-6.25-.57-8.95-2.3l-12.78-8.2c-3.82-2.46-7.7-5-10.69-8.37a10.09,10.09,0,0,0-2.14-2.09,9.46,9.46,0,0,0-3.44-1c-.88-.16-1.76-.35-2.63-.58a37,37,0,0,1-14-7,14.81,14.81,0,0,1-5-6.35c-1.16-3.38-.33-6.46,1-9.56s2.13-6.44,4.72-9a12.56,12.56,0,0,1,9.92-3.71c5.13.5,9.26,4.41,12.38,8.52A56.9,56.9,0,0,1,293.44,200a6.94,6.94,0,0,0,1.45,2.57,7.21,7.21,0,0,0,2.33,1.26c6.62,2.69,12.15,7.46,16.71,13,1.3,1.56,2.5,3.18,3.64,4.83.58.84,1.14,1.69,1.64,2.58a13,13,0,0,1,1.77,5A7.69,7.69,0,0,1,320.53,232.84Z" transform="translate(-45.24 -38.29)" fill="#f49b7b"></path><path d="M350.18,198.76a10.68,10.68,0,0,1-4,2.52,10.69,10.69,0,0,0-2.58,1.21,8.19,8.19,0,0,0-1.63,1.84c-.72,1-1.42,2-2.12,3q-1.85,2.66-3.6,5.38c-3.77,5.88-7.27,12-12.05,17.11a14.72,14.72,0,0,1-3.68,3,6.22,6.22,0,0,1-8.06-1.67,8.62,8.62,0,0,1-1.56-7,18.4,18.4,0,0,1,2.67-6.77c.11-.17.22-.34.35-.51a45.21,45.21,0,0,1,5.27-6.14l13.65-14.09c.63-.68.8-.87.62-1.72a18,18,0,0,0-1-2.51,4.68,4.68,0,0,1-.52-2.57c.16-.88,1.05-1.68,1.89-1.41.37.12.69.41,1.07.41s.83-.52,1.06-1a11.18,11.18,0,0,1,3.3-4.35c1.53-1,3.87-1.08,5,.36.26.33.44.72.72,1a5.34,5.34,0,0,0,2.5,1.22,3.15,3.15,0,0,1,2.18,1.64c.19.54.1,1.13.27,1.68a5.1,5.1,0,0,0,.89,1.43A6.26,6.26,0,0,1,350.18,198.76Z" transform="translate(-45.24 -38.29)" fill="#f49b7b"></path><path d="M339.86,207.34q-1.85,2.66-3.6,5.38c-3.77,5.88-7.27,12-12.05,17.11a14.72,14.72,0,0,1-3.68,3,5.71,5.71,0,0,1-3.09,3.45c-3,1.23-6.25-.57-8.95-2.3l-12.78-8.2c-3.82-2.46-7.7-5-10.69-8.37a10.09,10.09,0,0,0-2.14-2.09,9.46,9.46,0,0,0-3.44-1c-.88-.16-1.76-.35-2.63-.58a24.63,24.63,0,0,1,1.46-5.35,14.14,14.14,0,0,1,3.12-5.27c5.09-4.87,10.35,3.75,13.95,7.06q7.7,7.08,15.57,14l1.14,1a5.59,5.59,0,0,0,2.45,1.49c1.8.35,3.42-1,4.71-2.36l.06-.06,19.81-20.36C340.24,204.45,340.2,206,339.86,207.34Z" transform="translate(-45.24 -38.29)" fill="url(#linear-gradient-6)"></path><path d="M286.22,219c-1,5-3.91,9.47-5.86,14.15-4.14,9.9-4,21.05-2.92,31.74.4,4.14-.26,7.63-4.07,9.83-1.78,1-4,.83-6,.57-10-1.26-20.39-3.47-28.65-9a35.19,35.19,0,0,1-4.22-3.32c-4.53-4.18-4.61-8.73-2.87-14.32a53.28,53.28,0,0,0,2.09-21.11c-.95-9.14-4.26-17.86-6.21-26.84a55.82,55.82,0,0,1-1.41-13.44c0-.63,0-1.26.1-1.88a29,29,0,0,1,3.27-11.59,25.8,25.8,0,0,1,27.66-12.47c8.88,2,17,8.32,22,15.78,5.51,8.2,7.62,18.15,7.86,27.9A69.2,69.2,0,0,1,286.22,219Z" transform="translate(-45.24 -38.29)" fill="#68e1fd"></path><path d="M253.93,266.48c-.87,2-3.2,3-5.37,3a16.91,16.91,0,0,1-6.26-1.68c-1.2-.49-2.42-1-3.6-1.57a35.19,35.19,0,0,1-4.22-3.32c-4.53-4.18-4.61-8.73-2.87-14.32a53.28,53.28,0,0,0,2.09-21.11c-.95-9.14-4.26-17.86-6.21-26.84a55.82,55.82,0,0,1-1.41-13.44,28.75,28.75,0,0,1,4.64-2.25c4.95-1.89,16.83-6.06,19,1,2.27,7.59-1.18,17.9-.48,25.87.37,4.19-2.58,29.32-1.84,33.46,2.26,12.68,6.58,4.59,7,17.46A8.45,8.45,0,0,1,253.93,266.48Z" transform="translate(-45.24 -38.29)" fill="url(#linear-gradient-7)"></path><path d="M229.82,258.45a2.81,2.81,0,0,1,.83-1.24,2.43,2.43,0,0,1,1.3-.34c2.89-.16,5.71.81,8.44,1.77L252.91,263c6.28,2.2,12.69,4.42,19.34,4.65,1.59.05,3.46.12,4.36,1.44s.24,3.16-1,4.12a8.26,8.26,0,0,1-4.4,1.37,45.91,45.91,0,0,1-19.28-2.33c-3.76-1.3-7.33-3.09-11.06-4.44a32.21,32.21,0,0,0-10.5-1.87c-1.75,0-2-.88-1.92-2.76A13.27,13.27,0,0,1,229.82,258.45Z" transform="translate(-45.24 -38.29)" fill="#3f3d56"></path><path d="M229.82,258.45a2.81,2.81,0,0,1,.83-1.24,2.43,2.43,0,0,1,1.3-.34c2.89-.16,5.71.81,8.44,1.77L252.91,263c6.28,2.2,12.69,4.42,19.34,4.65,1.59.05,3.46.12,4.36,1.44s.24,3.16-1,4.12a8.26,8.26,0,0,1-4.4,1.37,45.91,45.91,0,0,1-19.28-2.33c-3.76-1.3-7.33-3.09-11.06-4.44a32.21,32.21,0,0,0-10.5-1.87c-1.75,0-2-.88-1.92-2.76A13.27,13.27,0,0,1,229.82,258.45Z" transform="translate(-45.24 -38.29)" fill="url(#linear-gradient-8)"></path><path d="M248,162l.24.07a57.41,57.41,0,0,1,7.28,2.28,13.43,13.43,0,0,1,3.79,2.12c.93.79,1.66,1.78,2.63,2.51a3.16,3.16,0,0,0,4.28,0,4.74,4.74,0,0,0,1.56-4.06c-.58-3.32,1.44-7.36,1.25-9.23-.39-3.8-2.88-3.87-5.36-6.79-2.21-2.6-5.57-5.59-9-3.35-2.3,1.54-2.83,3.42-3.39,6a30.51,30.51,0,0,1-1.8,5.26c-.6,1.43-1.84,2.84-2,4.39a.91.91,0,0,0,.1.61A.74.74,0,0,0,248,162Z" transform="translate(-45.24 -38.29)" fill="#f4a886"></path><path d="M261.88,158.05c.86,2.08,2.07,4.17,4.07,5.19a1.51,1.51,0,0,0,.94.22c.61-.11.92-.79,1.08-1.39.62-2.27.73-4.76,2-6.73.32-.48.72-1,.59-1.57a1.66,1.66,0,0,0-.5-.76,13.16,13.16,0,0,0-6.94-3.45c-2.51-.25-2.92,1.67-2.63,3.74A19.17,19.17,0,0,0,261.88,158.05Z" transform="translate(-45.24 -38.29)" fill="url(#linear-gradient-9)"></path><path d="M283.65,130.18c0,3.11.15,6.5,2.16,8.88.58.7,1.35,1.41,1.28,2.32-.1,1.13-1.41,1.67-2.28,2.4-1.88,1.58-1.86,4.42-1.86,6.88s-.46,5.4-2.7,6.42a6.5,6.5,0,0,1-2.56.42,30,30,0,0,1-9.68-1,14.46,14.46,0,0,1-7.85-5.5c-1.11-1.65-1.77-3.59-3-5.18s-3.11-2.9-4.32-4.64a8.44,8.44,0,0,1-.55-8.5,1.5,1.5,0,0,1,.6-.71c1-.48,2.15,1.05,3.07.48a15.23,15.23,0,0,1,8.66-14.33c5.06-2.3,10.2-1.14,14.88,1.36C284,121.82,283.73,125.44,283.65,130.18Z" transform="translate(-45.24 -38.29)" fill="#f4a886"></path><path d="M283.9,119.33a25.32,25.32,0,0,0,4.28-4.55,30.24,30.24,0,0,0-4.74-.41,7.77,7.77,0,0,0,2.34-2,19.07,19.07,0,0,0-4-.62c.3-.39.59-1,.23-1.31a.94.94,0,0,0-.33-.17A47,47,0,0,0,268.69,107a29.6,29.6,0,0,0-14.2,2.48c-4.4,2-8.52,5.33-9.81,10-1.33,4.83.6,9.86,1.84,14.71,1.12,4.4,1.67,8.92,2.37,13.41a2.7,2.7,0,0,0,1,2.09c.95.52,2.06-.23,2.88-.94l2.31-2a3.15,3.15,0,0,0,1.05-1.3c.36-1.11-.54-2.19-1.23-3.15a10.27,10.27,0,0,1-1.69-8.15,1.66,1.66,0,0,1,.53-1c.62-.47,1.56.06,1.87.77a8.37,8.37,0,0,1,.35,2.3,2,2,0,0,0,1.27,1.78c.68-1.65.34-3.52.33-5.31a14.12,14.12,0,0,1,13.13-14.15,10,10,0,0,1,6.6,1.83C279.51,121.8,281.74,121,283.9,119.33Z" transform="translate(-45.24 -38.29)" fill="#633f33"></path><path d="M250.39,189.91a15.11,15.11,0,0,1-7.94,5.59,32.2,32.2,0,0,1-5.42,1.32,57,57,0,0,1-15.44.36,5.07,5.07,0,0,0-5.16,1.53c-5.42,4.52-12.12,7.14-19.07,8.57-2.07.43-4.17.75-6.26,1-2.79.31-5.71.47-8.31-.58s-4.79-3.62-4.51-6.41c.31-3.2,3.45-5.25,6.25-6.81q6.61-3.72,13.25-7.42c4-2.22,8-4.46,12.41-5.49a10.2,10.2,0,0,0,2.85-.9,9.78,9.78,0,0,0,2.53-2.56A36.89,36.89,0,0,1,230.12,167a14.82,14.82,0,0,1,8-1.42c3.53.56,5.85,2.75,7.95,5.4s4.68,4.91,5.75,8.4A12.62,12.62,0,0,1,250.39,189.91Z" transform="translate(-45.24 -38.29)" fill="#f49b7b"></path><path d="M196.78,206.78a43.12,43.12,0,0,1,3.23,8.08l6,18.68c.58,1.81,2.13,2,3.61,3a25.11,25.11,0,0,1,4.63,3.92,1.92,1.92,0,0,1,.45.68c.19.65-.35,1.28-.91,1.65s-1.22.72-1.46,1.35c-.33.83.25,1.73.82,2.42a3.15,3.15,0,0,1,1.07,2.38c-.17.91-1.12,1.44-2,1.69a6.32,6.32,0,0,0-2.58,1,9.26,9.26,0,0,1-.94.84c-1.21.72-2.75-.53-4.14-.26a6.52,6.52,0,0,0-.91.31c-1.74.59-3.05-.13-4.43-1.08s-2.62-1.81-3.24-3.58a10.65,10.65,0,0,1-.35-4.7,10.53,10.53,0,0,0,.15-2.85,8.4,8.4,0,0,0-.85-2.3q-2.25-4.56-4.72-9c-3.41-6.1-7.17-12.08-9.42-18.69-.83-2.43-1.43-5.17-.33-7.49a6.59,6.59,0,0,1,4.68-3.5C190.13,198.3,194.51,202.78,196.78,206.78Z" transform="translate(-45.24 -38.29)" fill="#f49b7b"></path><path d="M227.66,288.57c4.3,9,12.43,15.54,21.06,20.49a99.24,99.24,0,0,0,25.1,10.12,4.29,4.29,0,0,0,2.27.13,4.25,4.25,0,0,0,2-1.79,152.12,152.12,0,0,0,14.74-25.41,5,5,0,0,0,.65-2.66,5.06,5.06,0,0,0-2.05-2.92l-9.25-8.08a27.44,27.44,0,0,0-6.41-4.59,39.44,39.44,0,0,0-7.14-2c-6.34-1.57-12.21-4.49-18.18-7.08-4.78-2.07-11.64-5.73-17.05-4.88C222.11,261.63,224.28,281.53,227.66,288.57Z" transform="translate(-45.24 -38.29)" fill="#3f3d56"></path><path d="M227.66,288.57c4.3,9,12.43,15.54,21.06,20.49a99.24,99.24,0,0,0,25.1,10.12,4.29,4.29,0,0,0,2.27.13,4.25,4.25,0,0,0,2-1.79,152.12,152.12,0,0,0,14.74-25.41,5,5,0,0,0,.65-2.66,5.06,5.06,0,0,0-2.05-2.92l-9.25-8.08a27.44,27.44,0,0,0-6.41-4.59,39.44,39.44,0,0,0-7.14-2c-6.34-1.57-12.21-4.49-18.18-7.08-4.78-2.07-11.64-5.73-17.05-4.88C222.11,261.63,224.28,281.53,227.66,288.57Z" transform="translate(-45.24 -38.29)" fill="url(#linear-gradient-10)"></path><path d="M175.24,389.84c-.8-.27-1.66-.31-2.46-.56-2.12-.65-3.54-2.6-4.62-4.54a3.74,3.74,0,0,0-1-1.31,2.71,2.71,0,0,0-2.95.12,28.39,28.39,0,0,0-2.42,2,41.55,41.55,0,0,1-3.85,2.19,5.15,5.15,0,0,0-2.69,3.36,6.48,6.48,0,0,0,.78,3.47,127.18,127.18,0,0,0,19.19,30.71c.41.47.92,1,1.54.92a1.79,1.79,0,0,0,1.05-.67,11.62,11.62,0,0,0,2.93-9.32c-.47-3.4-2.42-6.39-3.63-9.6a22.84,22.84,0,0,1-1.42-9.15C175.83,395.16,178.11,390.82,175.24,389.84Z" transform="translate(-45.24 -38.29)" fill="#3f3d56"></path><path d="M330,372.67c-.43.72-.65,1.55-1.06,2.29-1.07,1.93-3.28,2.92-5.4,3.57a3.9,3.9,0,0,0-1.49.68,2.71,2.71,0,0,0-.48,2.91A27.1,27.1,0,0,0,323,384.9a43.32,43.32,0,0,1,1.34,4.23,5.14,5.14,0,0,0,2.73,3.32,6.44,6.44,0,0,0,3.56-.05,126.37,126.37,0,0,0,34-12.4c.55-.29,1.16-.69,1.22-1.31a1.79,1.79,0,0,0-.44-1.16,11.62,11.62,0,0,0-8.51-4.81c-3.42-.25-6.75,1-10.15,1.56a22.85,22.85,0,0,1-9.24-.5C335.32,373.19,331.55,370.07,330,372.67Z" transform="translate(-45.24 -38.29)" fill="#3f3d56"></path><path d="M175.24,389.84c-.8-.27-1.66-.31-2.46-.56-2.12-.65-3.54-2.6-4.62-4.54a3.74,3.74,0,0,0-1-1.31,2.71,2.71,0,0,0-2.95.12,28.39,28.39,0,0,0-2.42,2,41.55,41.55,0,0,1-3.85,2.19,5.15,5.15,0,0,0-2.69,3.36,6.48,6.48,0,0,0,.78,3.47,127.18,127.18,0,0,0,19.19,30.71c.41.47.92,1,1.54.92a1.79,1.79,0,0,0,1.05-.67,11.62,11.62,0,0,0,2.93-9.32c-.47-3.4-2.42-6.39-3.63-9.6a22.84,22.84,0,0,1-1.42-9.15C175.83,395.16,178.11,390.82,175.24,389.84Z" transform="translate(-45.24 -38.29)" fill="url(#linear-gradient-11)"></path><path d="M330,372.67c-.43.72-.65,1.55-1.06,2.29-1.07,1.93-3.28,2.92-5.4,3.57a3.9,3.9,0,0,0-1.49.68,2.71,2.71,0,0,0-.48,2.91A27.1,27.1,0,0,0,323,384.9a43.32,43.32,0,0,1,1.34,4.23,5.14,5.14,0,0,0,2.73,3.32,6.44,6.44,0,0,0,3.56-.05,126.37,126.37,0,0,0,34-12.4c.55-.29,1.16-.69,1.22-1.31a1.79,1.79,0,0,0-.44-1.16,11.62,11.62,0,0,0-8.51-4.81c-3.42-.25-6.75,1-10.15,1.56a22.85,22.85,0,0,1-9.24-.5C335.32,373.19,331.55,370.07,330,372.67Z" transform="translate(-45.24 -38.29)" fill="url(#linear-gradient-12)"></path><rect x="91.84" y="381.87" width="264.13" height="41.96" rx="17.05" fill="#3f3d56"></rect><rect x="86.08" y="381.87" width="233.36" height="41.96" rx="16.03" fill="#3f3d56"></rect><path d="M364.67,436.18v9.91a16,16,0,0,1-16,16H147.34a16,16,0,0,1-16-16v-9.91a16,16,0,0,1,16-16H348.65a16,16,0,0,1,16,16Z" transform="translate(-45.24 -38.29)" fill="url(#linear-gradient-13)"></path><rect x="93.4" y="393.66" width="213.49" height="18.91" rx="9.46" fill="#68e1fd"></rect><polygon points="425.97 190.4 386.44 237.88 290.35 237.88 265.01 229.78 262 228.82 261 221.2 354.42 216.57 382.25 185.43 393.02 186.5 412.39 188.41 425.97 190.4" fill="#3f3d56"></polygon><polygon points="425.97 190.4 386.44 237.88 290.35 237.88 265.01 229.78 264.94 229.28 358.36 224.64 393.02 186.5 425.97 190.4" fill="url(#linear-gradient-14)"></polygon><path d="M248.12,169.19c-.63.55-1.39,1.17-2.19.93a2.27,2.27,0,0,1-.79-.47,29.31,29.31,0,0,0-6.5-3.83c-.49-.21-1.1-.67-.83-1.14a.89.89,0,0,1,.32-.29,35.75,35.75,0,0,1,6.77-3.4,3.53,3.53,0,0,1,1.27-.31,3.88,3.88,0,0,1,1.55.47c1.32.62,7,2.46,6.51,3.92S248.12,167.37,248.12,169.19Z" transform="translate(-45.24 -38.29)" fill="url(#linear-gradient-15)"></path><path d="M242.45,195.5a32.2,32.2,0,0,1-5.42,1.32,57,57,0,0,1-15.44.36,5.07,5.07,0,0,0-5.16,1.53c-5.42,4.52-12.12,7.14-19.07,8.57-.12-.09-.23-.19-.34-.29-3.05-2.83,2-4.42,4-5.64a49.25,49.25,0,0,0,9.25-7.19,6.13,6.13,0,0,1,1.48-1.22c1.41-.74,3.1-.26,4.65.08,8.8,1.94,17.87-1,26.88-1.35A4.62,4.62,0,0,1,242.45,195.5Z" transform="translate(-45.24 -38.29)" fill="url(#linear-gradient-16)"></path><path d="M387.61,266a10.35,10.35,0,0,1-.2,2L356.89,421.6c-.05.25-.11.5-.18.74a15.87,15.87,0,0,0-8.06-2.18H336L366.21,268a13.37,13.37,0,0,1,12.64-10.3C384,257.67,387.61,261.26,387.61,266Z" transform="translate(-45.24 -38.29)" fill="#3f3d56"></path></svg>