<svg xmlns="http://www.w3.org/2000/svg" xmlns:xlink="http://www.w3.org/1999/xlink" viewBox="0 0 400 300" width="406" height="306" class="illustration styles_illustrationTablet__1DWOa"><defs><linearGradient id="linear-gradient" x1="265.43" y1="139.91" x2="205.13" y2="169.49" gradientUnits="userSpaceOnUse"><stop offset="0" stop-color="#22b573"></stop><stop offset="1" stop-color="#fff"></stop></linearGradient></defs><title>201-210</title><g style="isolation: isolate;"><g id="Layer_2" data-name="Layer 2"><polygon points="14.07 190.17 183.86 288.01 389.64 171.19 217.44 71.49 14.07 190.17" fill="#7ad350"></polygon><polygon points="110.76 246.2 81.53 229.08 285.88 111.19 316.98 129.12 110.76 246.2" fill="#a9e089"></polygon><polygon points="42.77 206.49 13.55 189.37 217.89 71.48 248.56 89.66 42.77 206.49" fill="#a9e089"></polygon><polygon points="183.86 288.01 154.63 270.9 358.98 153.01 389.64 171.19 183.86 288.01" fill="#a9e089"></polygon><path d="M80.32,115l86.16,50.94,40.14,23.73c.37.22,1.14.9,1.56.92,1.32.08-.86,1.68-.2-.92-.48,1.89,0,4.5,0,6.43v45.81c0,2.48-.45,5.46,0,7.91-.17-.91,1.48-.84-.3-.46-1.54.32-3.35,1.81-4.74,2.56l-14.05,7.59c-3.76,2-7.93,3.8-11.47,6.19-2,1.32-.76-.11.06.73-.24-.25-.68-.3-.93-.54-3.38-3.13-9.08-5.21-13.05-7.49L59.3,198.64l-7.23-4.15c-.89-.51-2.73-2.1-3.79-2.17-.9-.06.31,1.11.45.9.4-.64.27-2.24.35-3l1.48-12.51,3.68-31c.23-1.95.51-3.9.68-5.86.68-8.09,6-12.87,12.47-17.29A127.24,127.24,0,0,1,81.83,115c1.72-.87.21-3.46-1.51-2.59-9.49,4.82-22.75,11.37-27.06,21.75-1.71,4.11-1.64,9.48-2.17,13.89L45.7,193.43a1.47,1.47,0,0,0,.74,1.3l63.49,36.42,44.69,25.64,14.89,8.54c1.84,1.06,4.35,3.22,6.45,3.7,1.53.35,2.45-.45,3.83-1.19l11-6,19.4-10.48a1.5,1.5,0,0,0,.74-1.3V193c0-1.21.38-3.18-.32-4.26-1.11-1.72-4.85-3-6.52-4L111.61,130,81.83,112.41A1.5,1.5,0,0,0,80.32,115Z" fill="#68e1fd"></path><path d="M79.57,113.7v54.42c0,1.45-.73,5.42,0,6.71.58,1-.06-.42.55-.57a12.71,12.71,0,0,0-2.48,1.32l-10.78,5.72L46.44,192.13c-1.71.9-.19,3.5,1.51,2.59l33.87-18a1.49,1.49,0,0,0,.74-1.3V113.7a1.5,1.5,0,0,0-3,0Z" fill="#68e1fd"></path><path d="M209.08,188.18c-7.13,2.9-15.08,6.51-20.5,12.11-4.29,4.43-5.14,11.46-6.33,17.25-3.35,16.24-6.72,33.59-7,50.23a1.5,1.5,0,0,0,3,0c.24-15.41,3.35-31.3,6.27-46.39,1.09-5.61,1.69-13.63,5.48-18.22,4.71-5.71,13.13-9.35,19.87-12.08,1.77-.72,1-3.62-.8-2.89Z" fill="#68e1fd"></path><polygon points="200.35 255.3 199.35 255.3 199.35 195.88 72.22 120.95 72.22 180.43 71.22 180.43 71.22 119.2 200.35 195.31 200.35 255.3" fill="#68e1fd"></polygon><polygon points="189.91 260.94 188.91 260.94 188.91 201.88 61.17 127.63 61.17 185.6 60.17 185.6 60.17 125.9 189.91 201.3 189.91 260.94" fill="#68e1fd"></polygon><polygon points="184.51 214.7 184.27 214.57 53.32 138.86 53.82 137.99 184.53 213.56 209.25 200.67 209.71 201.55 184.51 214.7" fill="#68e1fd"></polygon><polygon points="182.45 264.97 181.45 264.97 181.45 227.49 51.68 154 52.18 153.13 182.45 226.91 182.45 264.97" fill="#68e1fd"></polygon><polygon points="179.77 241.22 50.16 166.82 50.66 165.95 179.83 240.09 209.27 226.74 209.69 227.66 179.77 241.22" fill="#68e1fd"></polygon><polygon points="178.03 254.27 177.8 254.14 48.59 180.1 49.08 179.23 178.07 253.15 209.26 238.17 209.7 239.07 178.03 254.27" fill="#68e1fd"></polygon><path d="M55.86,197h-1c.06-9.37,6.79-57.48,11.13-64.43s21.18-13.88,21.89-14.17l.37.93c-.17.07-17.17,7-21.42,13.77S55.93,187.7,55.86,197Z" fill="#68e1fd"></path><path d="M65.22,201.91h-1c.06-9.37,6.79-57.48,11.13-64.43s21.18-13.88,21.89-14.17l.37.93c-.17.07-17.17,7-21.42,13.77S65.28,192.6,65.22,201.91Z" fill="#68e1fd"></path><path d="M76,207.41H75C75,198,81.76,149.92,86.11,143s21.18-13.88,21.89-14.17l.37.93c-.17.07-17.17,7-21.42,13.77S76,198.09,76,207.41Z" fill="#68e1fd"></path><path d="M84.34,213.16h-1c.06-9.37,6.79-57.48,11.13-64.43s21.18-13.88,21.89-14.17l.37.93c-.17.07-17.17,7-21.42,13.77S84.4,203.84,84.34,213.16Z" fill="#68e1fd"></path><path d="M93.7,218.06h-1c.06-9.37,6.79-57.48,11.13-64.43s21.18-13.88,21.89-14.17l.37.93c-.17.07-17.17,7-21.42,13.77S93.76,208.74,93.7,218.06Z" fill="#68e1fd"></path><path d="M104.45,223.56h-1c.06-9.37,6.79-57.48,11.13-64.43s21.18-13.88,21.89-14.17l.37.93c-.17.07-17.17,7-21.42,13.77S104.52,214.24,104.45,223.56Z" fill="#68e1fd"></path><path d="M114.07,230h-1c.06-9.37,6.79-57.48,11.13-64.43s21.18-13.88,21.89-14.17l.37.93c-.17.07-17.17,7-21.42,13.77S114.13,220.72,114.07,230Z" fill="#68e1fd"></path><path d="M124.85,236.08h-1c.06-9.37,6.79-57.48,11.13-64.43s21.18-13.88,21.89-14.17l.37.93c-.17.07-17.17,7-21.42,13.77S124.91,226.77,124.85,236.08Z" fill="#68e1fd"></path><path d="M137.16,243.43h-1c.06-9.37,6.79-57.48,11.13-64.43s21.18-13.88,21.89-14.17l.37.93c-.17.07-17.17,7-21.42,13.77S137.23,234.11,137.16,243.43Z" fill="#68e1fd"></path><path d="M144.56,249.64h-1c.06-9.37,6.79-57.48,11.13-64.43s21.18-13.88,21.89-14.17l.37.93c-.17.07-17.17,7-21.42,13.77S144.62,240.32,144.56,249.64Z" fill="#68e1fd"></path><path d="M154.6,255.46h-1c.06-9.37,6.79-57.48,11.13-64.43s21.18-13.88,21.89-14.17l.37.93c-.17.07-17.17,7-21.42,13.77S154.67,246.15,154.6,255.46Z" fill="#68e1fd"></path><path d="M165.36,261h-1c.06-9.37,6.79-57.48,11.13-64.43s21.18-13.88,21.89-14.17l.37.93c-.17.07-17.17,7-21.42,13.77S165.42,251.64,165.36,261Z" fill="#68e1fd"></path><rect x="180.48" y="220.17" width="30.47" height="1" transform="translate(-75.71 105.23) rotate(-25.39)" fill="#68e1fd"></rect><g opacity="0.15"><path d="M80.32,115l86.16,50.94,40.14,23.73c.37.22,1.14.9,1.56.92,1.32.08-.86,1.68-.2-.92-.48,1.89,0,4.5,0,6.43v45.81c0,2.48-.45,5.46,0,7.91-.17-.91,1.48-.84-.3-.46-1.54.32-3.35,1.81-4.74,2.56l-14.05,7.59c-3.76,2-7.93,3.8-11.47,6.19-2,1.32-.76-.11.06.73-.24-.25-.68-.3-.93-.54-3.38-3.13-9.08-5.21-13.05-7.49L59.3,198.64l-7.23-4.15c-.89-.51-2.73-2.1-3.79-2.17-.9-.06.31,1.11.45.9.4-.64.27-2.24.35-3l1.48-12.51,3.68-31c.23-1.95.51-3.9.68-5.86.68-8.09,6-12.87,12.47-17.29A127.24,127.24,0,0,1,81.83,115c1.72-.87.21-3.46-1.51-2.59-9.49,4.82-22.75,11.37-27.06,21.75-1.71,4.11-1.64,9.48-2.17,13.89L45.7,193.43a1.47,1.47,0,0,0,.74,1.3l63.49,36.42,44.69,25.64,14.89,8.54c1.84,1.06,4.35,3.22,6.45,3.7,1.53.35,2.45-.45,3.83-1.19l11-6,19.4-10.48a1.5,1.5,0,0,0,.74-1.3V193c0-1.21.38-3.18-.32-4.26-1.11-1.72-4.85-3-6.52-4L111.61,130,81.83,112.41A1.5,1.5,0,0,0,80.32,115Z" fill="#56403d"></path><path d="M79.57,113.7v54.42c0,1.45-.73,5.42,0,6.71.58,1-.06-.42.55-.57a12.71,12.71,0,0,0-2.48,1.32l-10.78,5.72L46.44,192.13c-1.71.9-.19,3.5,1.51,2.59l33.87-18a1.49,1.49,0,0,0,.74-1.3V113.7a1.5,1.5,0,0,0-3,0Z" fill="#56403d"></path><path d="M209.08,188.18c-7.13,2.9-15.08,6.51-20.5,12.11-4.29,4.43-5.14,11.46-6.33,17.25-3.35,16.24-6.72,33.59-7,50.23a1.5,1.5,0,0,0,3,0c.24-15.41,3.35-31.3,6.27-46.39,1.09-5.61,1.69-13.63,5.48-18.22,4.71-5.71,13.13-9.35,19.87-12.08,1.77-.72,1-3.62-.8-2.89Z" fill="#56403d"></path><polygon points="200.35 255.3 199.35 255.3 199.35 195.88 72.22 120.95 72.22 180.43 71.22 180.43 71.22 119.2 200.35 195.31 200.35 255.3" fill="#56403d"></polygon><polygon points="189.91 260.94 188.91 260.94 188.91 201.88 61.17 127.63 61.17 185.6 60.17 185.6 60.17 125.9 189.91 201.3 189.91 260.94" fill="#56403d"></polygon><polygon points="184.51 214.7 184.27 214.57 53.32 138.86 53.82 137.99 184.53 213.56 209.25 200.67 209.71 201.55 184.51 214.7" fill="#56403d"></polygon><polygon points="182.45 264.97 181.45 264.97 181.45 227.49 51.68 154 52.18 153.13 182.45 226.91 182.45 264.97" fill="#56403d"></polygon><polygon points="179.77 241.22 50.16 166.82 50.66 165.95 179.83 240.09 209.27 226.74 209.69 227.66 179.77 241.22" fill="#56403d"></polygon><polygon points="178.03 254.27 177.8 254.14 48.59 180.1 49.08 179.23 178.07 253.15 209.26 238.17 209.7 239.07 178.03 254.27" fill="#56403d"></polygon><path d="M55.86,197h-1c.06-9.37,6.79-57.48,11.13-64.43s21.18-13.88,21.89-14.17l.37.93c-.17.07-17.17,7-21.42,13.77S55.93,187.7,55.86,197Z" fill="#56403d"></path><path d="M65.22,201.91h-1c.06-9.37,6.79-57.48,11.13-64.43s21.18-13.88,21.89-14.17l.37.93c-.17.07-17.17,7-21.42,13.77S65.28,192.6,65.22,201.91Z" fill="#56403d"></path><path d="M76,207.41H75C75,198,81.76,149.92,86.11,143s21.18-13.88,21.89-14.17l.37.93c-.17.07-17.17,7-21.42,13.77S76,198.09,76,207.41Z" fill="#56403d"></path><path d="M84.34,213.16h-1c.06-9.37,6.79-57.48,11.13-64.43s21.18-13.88,21.89-14.17l.37.93c-.17.07-17.17,7-21.42,13.77S84.4,203.84,84.34,213.16Z" fill="#56403d"></path><path d="M93.7,218.06h-1c.06-9.37,6.79-57.48,11.13-64.43s21.18-13.88,21.89-14.17l.37.93c-.17.07-17.17,7-21.42,13.77S93.76,208.74,93.7,218.06Z" fill="#56403d"></path><path d="M104.45,223.56h-1c.06-9.37,6.79-57.48,11.13-64.43s21.18-13.88,21.89-14.17l.37.93c-.17.07-17.17,7-21.42,13.77S104.52,214.24,104.45,223.56Z" fill="#56403d"></path><path d="M114.07,230h-1c.06-9.37,6.79-57.48,11.13-64.43s21.18-13.88,21.89-14.17l.37.93c-.17.07-17.17,7-21.42,13.77S114.13,220.72,114.07,230Z" fill="#56403d"></path><path d="M124.85,236.08h-1c.06-9.37,6.79-57.48,11.13-64.43s21.18-13.88,21.89-14.17l.37.93c-.17.07-17.17,7-21.42,13.77S124.91,226.77,124.85,236.08Z" fill="#56403d"></path><path d="M137.16,243.43h-1c.06-9.37,6.79-57.48,11.13-64.43s21.18-13.88,21.89-14.17l.37.93c-.17.07-17.17,7-21.42,13.77S137.23,234.11,137.16,243.43Z" fill="#56403d"></path><path d="M144.56,249.64h-1c.06-9.37,6.79-57.48,11.13-64.43s21.18-13.88,21.89-14.17l.37.93c-.17.07-17.17,7-21.42,13.77S144.62,240.32,144.56,249.64Z" fill="#56403d"></path><path d="M154.6,255.46h-1c.06-9.37,6.79-57.48,11.13-64.43s21.18-13.88,21.89-14.17l.37.93c-.17.07-17.17,7-21.42,13.77S154.67,246.15,154.6,255.46Z" fill="#56403d"></path><path d="M165.36,261h-1c.06-9.37,6.79-57.48,11.13-64.43s21.18-13.88,21.89-14.17l.37.93c-.17.07-17.17,7-21.42,13.77S165.42,251.64,165.36,261Z" fill="#56403d"></path><rect x="180.48" y="220.17" width="30.47" height="1" transform="translate(-75.71 105.23) rotate(-25.39)" fill="#56403d"></rect></g><path d="M230.22,146.82l-42,18.39S175.26,181,200,184.59l70.09-39.87A239.38,239.38,0,0,0,230.22,146.82Z" fill="url(#linear-gradient)" style="mix-blend-mode: multiply;"></path><polyline points="260.49 134.21 245.67 133.01 251.19 127.66 268.6 127.8" fill="#fff"></polyline><path d="M263.88,127.81s.17,3.53-1.21,4-4.85.67-2.6,2.18,3.82.67,3.82.67a4.4,4.4,0,0,1,1,4.71,7.34,7.34,0,0,0,.29,5.43c2,1,2.83.62,4-1.9s2.6-14.79,2.08-15.12S263.88,127.81,263.88,127.81Z" fill="#fb9328"></path><path d="M266.63,145.31a3.12,3.12,0,0,0,3.07-.36c1.33-1.13,1.53-6.81,2.74-8.88s2.08-8.62-1.12-8.26" fill="#010005"></path><path d="M235.82,119.9s-8,20.31,4.65,15,23.36-15,23.36-15Z" fill="#ff9e8b"></path><path d="M237.61,86.2s-5.3,8.08-7.29,8.79a73.59,73.59,0,0,0-8,4.23c-.54.35-5.44,1.94-6.17,4.22s-1.45,6.15,0,6.86-.1-3.34,1.85-4.92,0,1.76,1.59,1.94,2.72-4.22,3.81-4.57a99.15,99.15,0,0,0,11.79-4.45c4.17-2.06,9.92-8.39,9.92-8.39" fill="#f8c8b2"></path><path d="M277.93,84.27c1.05.51,8.44,5.61,10.37,7.83s5.63,10.4,6,12.45,1.58,8.19,0,9-2.81,3.24-3.69,2.39,1.93-3.92,1.41-5.46-1.05,1.72-2.11,1.88,1.23-5.81.7-6.49S282.85,95,277.93,92.61" fill="#f8c8b2"></path><path d="M252.08,114.77c-1.25,1.16-11.22,16-15,26.26s-7.74,15.24-7.74,15.24,2.48,10,4.32,7.86,9-13,15.59-26.76c0,0,10.94-6.15,16.84-13.95" fill="#f8c8b2"></path><path d="M246.61,102.17s-14.18,19.86-13.2,21.54,7.07,4.76,8.35,4.76,5-8.67,9.94-8.11,8.28,8.11,7.31,9.79c0,0,6-2.24,8-6.71s0-14.83,0-14.83" fill="#a03e24" stroke="#f2f2f2" stroke-miterlimit="10"></path><path d="M253.43,75.87c-.85.15-4.94-3.92-17.61,10.91l4.65,7.27,6.14-4.2s1,6.71,0,8.67-4.14,6.15-3.56,7.55,8.75,8.39,14.76,8.67,10-3.92,14.34-3.08c0,0-4.3-5.31-4.3-9.23s-.58-10.91-.58-10.91,7.21,1.22,9.81,3.55l5.12-9.42S268.14,73.35,253.43,75.87Z" fill="#68e1fd"></path><path d="M237.77,139.56l-.07,0c-.21.51-.4,1-.58,1.51-3.74,10.28-7.74,15.24-7.74,15.24s2,10.89,3.79,8.77c1.6-1.84,8-11.49,13.56-22.47A54.13,54.13,0,0,1,237.77,139.56Z" fill="#fff"></path><path d="M229.15,168.66a10.34,10.34,0,0,0,5.31-6.52c1.29-4.76-.75-11.91-3.29-14.11s-9.38-1.78-9.17,4.1" fill="#fb9328"></path><path d="M224.74,167.94a9.72,9.72,0,0,1-1-5.06c.27-2.68-5-9.5-1.6-13.23,2.66-2.89,6.55-1.72,8.68,2.83s2.3,14.85-1.62,16.19S224.74,167.94,224.74,167.94Z" fill="#010005"></path><path d="M263.31,65.93v-.1a4,4,0,0,0-.62-1.93c-1.05-1.42-3.78-1.91-5.44-2.13a10.79,10.79,0,0,0-6.19.89c-2.15,1.06-1.86,3.17-1.31,5,.4,1.36.8,2.72,1.18,4.08l7.6,5.44s3.63-1.76,4.15-3.18A18.09,18.09,0,0,0,263.31,65.93Z" fill="#121605"></path><path d="M250.69,68.76c0,.55-.38,10.15,4.57,10.52S261,73.8,261,73.8s2.48-2.57,1.43-3.25a1.62,1.62,0,0,0-2,.35s-2.87,3.43-2.26,1.34.5-5.15-2-4.78-2.59,1.55-4,.63S250.65,67.39,250.69,68.76Z" fill="#f8cdbc"></path><path d="M188.32,135l-.18-.05,1.37-4.19a12.57,12.57,0,0,0-4.28,7.94l.09.1A33.84,33.84,0,0,1,188.32,135Z" fill="#fff"></path><path d="M190.64,146l.06-.09a16.58,16.58,0,0,1-3.85-.91v1.33a2,2,0,0,1-.3-.34,13,13,0,0,0,7.76,6.37q.14-1.16.21-2.32Z" fill="#fff"></path><path d="M197.6,127.58a13.27,13.27,0,0,0-7.95,3.1l5.16-1.55A22.47,22.47,0,0,1,197.6,127.58Z" fill="#fff"></path><path d="M206.5,131.69l3.13,3.93,1,.58a12.81,12.81,0,0,0-5.25-6.56,19.58,19.58,0,0,1,1,2.08Z" fill="#fff"></path><path d="M204.07,149.9a37.65,37.65,0,0,1-4.37-1l-4.78,1.2q-.08,1.19-.22,2.38a13.48,13.48,0,0,0,9-.68l-.25,0Z" fill="#fff"></path><path d="M196.95,131.69l-.07.07q3.07.9,6.09,1.95l0-.08,3.13-1.71a19.18,19.18,0,0,0-1.37-2.69,13.34,13.34,0,0,0-6.13-1.65,22.21,22.21,0,0,0-3.12,1.6Z" fill="#fff"></path><path d="M188.74,135.17a33.32,33.32,0,0,0-3.14,4l.09.11,1.17,5.12v.28a16,16,0,0,0,4.1,1l2.37-3.37a36,36,0,0,1-1.37-6.08Z" fill="#fff"></path><path d="M204.24,139.67q-2.28,2.13-4.73,4.07l.53.18v4.72a35.35,35.35,0,0,0,4.15.9l.15-.48,3.9-3.43a28.19,28.19,0,0,0,.29-4.87Z" fill="#fff"></path><path d="M203,134.14q-3.22-1.12-6.49-2.08l-4.21,4.08a35.44,35.44,0,0,0,1.26,5.68l0-.05,5.43,1.81q2.6-2,5-4.3Z" fill="#fff"></path><path d="M208.92,140.2a28.53,28.53,0,0,1-.22,5.07h1.61a12.37,12.37,0,0,0,.53-8.52l-.82-.47Z" fill="#fff"></path><path d="M189.54,130.72l0,.08.14-.12Z" fill="#050505"></path><path d="M209.63,135.62l-3.13-3.93-.07,0a19.58,19.58,0,0,0-1-2.08l-.7-.42a19.18,19.18,0,0,1,1.37,2.69l-3.13,1.71,0,.08q-3-1-6.09-1.95l.07-.07-1.48-2.51a22.21,22.21,0,0,1,3.12-1.6h-.34l-.64,0a22.47,22.47,0,0,0-2.79,1.55l-5.16,1.55-.14.12L188.14,135l.18.05a33.84,33.84,0,0,0-3,3.79l-.09-.1a12.29,12.29,0,0,0,1.33,7.31,2,2,0,0,0,.3.34v-1.33a16.58,16.58,0,0,0,3.85.91l-.06.09,3.89,4.06q-.08,1.16-.21,2.32l.38.11q.14-1.19.22-2.38l4.78-1.2a37.65,37.65,0,0,0,4.37,1l-.63,2,.25,0a13,13,0,0,0,6.61-6.58H208.7a28.53,28.53,0,0,0,.22-5.07l1.09-3.92.82.47q-.08-.28-.18-.55ZM191,145.6a16,16,0,0,1-4.1-1v-.28l-1.17-5.12-.09-.11a33.32,33.32,0,0,1,3.14-4l3.22,1a36,36,0,0,0,1.37,6.08Zm2.69-3.82,0,.05a35.44,35.44,0,0,1-1.26-5.68l4.21-4.08q3.27,1,6.49,2.08l1,5.15q-2.4,2.25-5,4.3Zm14.6,3.85-3.9,3.43-.15.48a35.35,35.35,0,0,1-4.15-.9v-4.72l-.53-.18q2.45-1.94,4.73-4.07l4.29,1.09A28.19,28.19,0,0,1,208.24,145.63Z" fill="#050505"></path></g></g></svg>